<?xml version="1.0" encoding="UTF-8"?>
<svg id="Layer_2" data-name="Layer 2" xmlns="http://www.w3.org/2000/svg" viewBox="0 0 255.27 64.29">
  <defs>
    <style>
      .cls-1 {
        fill: #231f20;
      }

      .cls-2 {
        fill: #fff;
      }

      .cls-3 {
        fill: #5d4f4a;
      }
    </style>
  </defs>
  <g id="Layer_1-2" data-name="Layer 1">
    <g>
      <g>
        <path class="cls-1" d="M22.27,18.58c.35.21.52.58.52,1.1v7.76c0,.51-.23.88-.69,1.09-.46.22-1.22.33-2.29.33-.71,0-1.25-.05-1.63-.15-.38-.1-.65-.24-.8-.44-.15-.2-.23-.47-.23-.83,0-1.29-.39-2.29-1.17-3-.78-.71-1.97-1.06-3.56-1.06-2.09,0-3.67.75-4.76,2.25-1.08,1.5-1.62,3.67-1.62,6.49s.57,4.96,1.72,6.48c1.15,1.53,2.78,2.29,4.88,2.29,1.67,0,3.25-.23,4.73-.68v-3.77h-4.35c-.36,0-.64-.06-.83-.18-.2-.12-.34-.35-.44-.68-.1-.33-.15-.81-.15-1.44s.05-1.11.15-1.44c.1-.33.24-.56.44-.69.2-.13.47-.19.83-.19h10.69c.36,0,.64.06.83.19.2.13.34.36.44.69.1.33.15.81.15,1.44s-.05,1.11-.15,1.44c-.1.33-.24.56-.44.68-.2.12-.47.18-.83.18h-.7v5.84c0,.36-.07.68-.21.95-.14.27-.34.47-.6.61-1.4.72-2.93,1.26-4.6,1.62-1.67.36-3.4.54-5.19.54-2.47,0-4.64-.56-6.52-1.69-1.88-1.13-3.33-2.74-4.36-4.84-1.03-2.1-1.54-4.55-1.54-7.36s.5-5.24,1.51-7.34c1.01-2.1,2.4-3.71,4.18-4.84,1.78-1.13,3.8-1.69,6.05-1.69,2.65,0,4.6.89,5.86,2.66v-1.24c0-.51.22-.88.65-1.09.44-.22,1.13-.33,2.1-.33s1.57.11,1.92.32Z"/>
        <path class="cls-1" d="M44.11,19.11c.38.23.65.61.81,1.12l6.54,20.67h1.96c.36,0,.64.06.83.18.2.12.34.35.44.68.1.33.15.81.15,1.44s-.05,1.11-.15,1.44c-.1.33-.24.56-.44.69-.2.13-.47.19-.83.19h-9.56c-.36,0-.64-.06-.83-.19-.2-.13-.34-.36-.44-.69-.1-.33-.15-.81-.15-1.44s.05-1.11.15-1.44c.1-.33.24-.56.44-.68.2-.12.47-.18.83-.18h1.94l-1.01-3.27h-8.21l-1.01,3.27h1.67c.36,0,.64.06.83.18.2.12.34.35.44.68.1.33.15.81.15,1.44s-.05,1.11-.15,1.44c-.1.33-.24.56-.44.69-.2.13-.47.19-.83.19h-9.11c-.36,0-.64-.06-.83-.19-.2-.13-.34-.36-.44-.69-.1-.33-.15-.81-.15-1.44s.05-1.11.15-1.44c.1-.33.24-.56.44-.68.2-.12.47-.18.83-.18h1.89l5.7-17.52h-3.77c-.36,0-.64-.06-.83-.19-.2-.13-.34-.36-.44-.69-.1-.33-.15-.81-.15-1.44s.05-1.11.15-1.44c.1-.33.24-.56.44-.68.2-.12.47-.18.83-.18h10.69c.6,0,1.09.12,1.47.35ZM40.67,23.39l-2.77,9.63h5.61l-2.71-9.63h-.14Z"/>
        <path class="cls-1" d="M78.81,18.96c.2.13.34.36.44.69.1.33.15.81.15,1.44s-.05,1.11-.15,1.44c-.1.33-.24.56-.44.68-.2.12-.47.18-.83.18h-1.53l-8.18,21.17c-.21.54-.53.92-.97,1.14-.44.22-1.11.33-2.03.33s-1.59-.11-2.02-.34c-.43-.23-.74-.6-.94-1.13l-7.89-21.17h-1.74c-.36,0-.64-.06-.83-.18-.2-.12-.34-.35-.44-.68-.1-.33-.15-.81-.15-1.44s.05-1.11.15-1.44c.1-.33.24-.56.44-.69.2-.13.47-.19.83-.19h9.78c.36,0,.64.06.83.19.2.13.34.36.44.69.1.33.15.81.15,1.44s-.05,1.11-.15,1.44c-.1.33-.24.56-.44.68-.2.12-.47.18-.83.18h-2.01l4.85,13.82,5.16-13.82h-1.6c-.36,0-.64-.06-.83-.18-.2-.12-.34-.35-.44-.68-.1-.33-.15-.81-.15-1.44s.05-1.11.15-1.44c.1-.33.24-.56.44-.69.2-.13.47-.19.83-.19h9.11c.36,0,.64.06.83.19Z"/>
        <path class="cls-1" d="M105.87,19.1c.23.23.34.6.34,1.13v6.81c0,.51-.22.88-.65,1.09-.44.22-1.14.33-2.1.33s-1.57-.1-1.92-.32c-.35-.21-.52-.58-.52-1.1v-3.43h-9.02v5.7h5.5c.53,0,.89.17,1.1.52.21.35.32.98.32,1.92s-.11,1.57-.32,1.9c-.21.34-.58.51-1.1.51h-5.5v6.52h9.24v-4.55c0-.51.22-.88.66-1.09.44-.22,1.17-.33,2.18-.33s1.67.11,2.03.32c.36.21.54.58.54,1.1v7.94c0,.51-.11.88-.34,1.12-.23.23-.6.35-1.13.35h-21.01c-.36,0-.64-.06-.83-.18-.2-.12-.34-.35-.44-.68-.1-.33-.15-.81-.15-1.44s.05-1.11.15-1.44c.1-.33.24-.56.44-.69.2-.13.47-.19.83-.19h2.19v-17.52h-2.19c-.36,0-.64-.06-.83-.18-.2-.12-.34-.35-.44-.68-.1-.33-.15-.81-.15-1.44s.05-1.11.15-1.44c.1-.33.24-.56.44-.69.2-.13.47-.19.83-.19h20.56c.53,0,.9.11,1.13.34Z"/>
        <path class="cls-1" d="M134.23,19.1c.23.23.34.6.34,1.13v9.51c0,.5-.21.86-.62,1.08s-1.05.34-1.9.34-1.4-.11-1.72-.33c-.32-.22-.48-.58-.48-1.09v-6.13h-4.08v17.29h4.87c.36,0,.64.06.83.19.2.13.34.36.44.69.1.33.15.81.15,1.44s-.05,1.11-.15,1.44c-.1.33-.24.56-.44.68-.2.12-.47.18-.83.18h-15.38c-.36,0-.64-.06-.83-.18-.2-.12-.34-.35-.44-.68-.1-.33-.15-.81-.15-1.44s.05-1.11.15-1.44c.1-.33.24-.56.44-.69.2-.13.47-.19.83-.19h4.87v-17.29h-4.08v6.13c0,.5-.21.86-.62,1.08-.41.23-1.05.34-1.91.34s-1.4-.11-1.72-.33c-.32-.22-.48-.58-.48-1.09v-9.51c0-.53.12-.9.35-1.13.23-.23.6-.34,1.12-.34h20.34c.53,0,.9.11,1.13.34Z"/>
        <path class="cls-1" d="M153.96,19.11c.38.23.65.61.81,1.12l6.54,20.67h1.96c.36,0,.64.06.83.18.2.12.34.35.44.68.1.33.15.81.15,1.44s-.05,1.11-.15,1.44c-.1.33-.24.56-.44.69-.2.13-.47.19-.83.19h-9.56c-.36,0-.64-.06-.83-.19-.2-.13-.34-.36-.44-.69-.1-.33-.15-.81-.15-1.44s.05-1.11.15-1.44c.1-.33.24-.56.44-.68.2-.12.47-.18.83-.18h1.94l-1.01-3.27h-8.21l-1.01,3.27h1.67c.36,0,.64.06.83.18.2.12.34.35.44.68.1.33.15.81.15,1.44s-.05,1.11-.15,1.44c-.1.33-.24.56-.44.69-.2.13-.47.19-.83.19h-9.11c-.36,0-.64-.06-.83-.19-.2-.13-.34-.36-.44-.69-.1-.33-.15-.81-.15-1.44s.05-1.11.15-1.44c.1-.33.24-.56.44-.68.2-.12.47-.18.83-.18h1.89l5.7-17.52h-3.76c-.36,0-.64-.06-.83-.19-.2-.13-.34-.36-.44-.69-.1-.33-.15-.81-.15-1.44s.05-1.11.15-1.44c.1-.33.24-.56.44-.68.2-.12.47-.18.83-.18h10.69c.6,0,1.09.12,1.47.35ZM150.51,23.39l-2.77,9.63h5.61l-2.71-9.63h-.14Z"/>
      </g>
      <g>
        <g>
          <path class="cls-3" d="M250.49,15.66c-2.45-.35-5.01-2.58-5.7-4.96l-1.83-6.37c-.68-2.38-3.19-3.77-5.57-3.09l-62.22,17.84c-2.38.68-3.77,3.19-3.09,5.57l1.83,6.37c.68,2.38-.31,5.63-2.2,7.23,0,0-2.62,2.21-1.52,6.05s4.5,4.33,4.5,4.33c2.45.35,5.01,2.58,5.7,4.96l1.83,6.37c.68,2.38,3.19,3.77,5.57,3.09l62.22-17.84c2.38-.68,3.77-3.19,3.09-5.57l-1.83-6.37c-.68-2.38.31-5.63,2.2-7.23,0,0,2.62-2.21,1.52-6.06s-4.5-4.33-4.5-4.33ZM178.3,46.26c-2.18.63-4.46-.64-5.09-2.82s.64-4.46,2.82-5.08,4.46.64,5.09,2.82-.64,4.46-2.82,5.09ZM249.17,25.94c-2.18.63-4.46-.64-5.09-2.82s.64-4.46,2.82-5.08,4.46.64,5.08,2.82-.64,4.46-2.82,5.09Z"/>
          <path class="cls-2" d="M237.21,44.05l-39.17,11.23c-1.37-4.78-6.36-7.54-11.13-6.17l-5.09-17.73c4.78-1.37,7.54-6.36,6.17-11.13l39.17-11.23c1.37,4.78,6.36,7.54,11.13,6.17l5.09,17.73c-4.78,1.37-7.54,6.36-6.17,11.13Z"/>
        </g>
        <g>
          <path class="cls-1" d="M203.39,23.14c1.31.24,2.41.8,3.3,1.66.89.86,1.53,1.99,1.93,3.37.36,1.27.42,2.52.16,3.76-.26,1.23-.83,2.62-1.72,4.17l-3.67,6.43,5.26-1.51-.5-1.74c-.13-.44-.07-.79.16-1.05.24-.26.74-.5,1.51-.72s1.4-.3,1.81-.22c.41.08.68.33.8.76l1.31,4.57c.12.43.12.77-.01,1.02-.13.25-.41.44-.85.56l-14.44,4.14c-.3.09-.54.1-.74.04-.19-.06-.37-.22-.53-.47-.16-.25-.32-.64-.47-1.17s-.22-.89-.23-1.16c-.01-.27.05-.51.18-.72l5.76-10.09c.74-1.3,1.22-2.32,1.44-3.05.21-.73.23-1.42.04-2.08-.25-.87-.7-1.5-1.35-1.88-.65-.39-1.45-.44-2.39-.17-1.08.31-2.08.88-3,1.72l.76,2.64c.13.44.07.79-.16,1.05s-.74.5-1.51.72-1.4.3-1.81.22c-.41-.08-.68-.33-.8-.76l-1.28-4.47c-.15-.52,0-1,.46-1.44.93-.93,1.92-1.72,2.98-2.36,1.06-.64,2.12-1.11,3.19-1.41,1.63-.47,3.1-.58,4.42-.34Z"/>
          <path class="cls-1" d="M227.48,15.92c.19.06.37.22.53.47.16.25.32.64.47,1.17.18.62.25,1.09.22,1.41l-2.43,20.88c-.04.33-.19.6-.46.84-.26.23-.61.41-1.03.53-.36.1-.73.16-1.1.17-.6.03-1.11-.04-1.55-.22-.44-.18-.71-.46-.82-.84-.04-.15-.05-.33-.03-.54l2.27-18.53-6.83,1.96,1.04,3.62c.13.44.07.79-.16,1.05-.24.26-.74.5-1.51.72s-1.4.3-1.81.22c-.41-.08-.68-.33-.8-.76l-1.85-6.46c-.13-.44-.12-.78.02-1.03.14-.24.42-.43.84-.55l14.25-4.09c.3-.09.54-.1.74-.04Z"/>
        </g>
      </g>
    </g>
  </g>
</svg>